Crispy Standard Medium.ufo
<glyph name="asterisk" format="2">
  <advance width="976"/>
  <unicode hex="002A"/>
  <outline>
    <contour>
      <point x="314" y="854" type="line"/>
      <point x="481" y="1155" type="line"/>
      <point x="683" y="865" type="line"/>
      <point x="888" y="981" type="line"/>
      <point x="553" y="1203" type="line"/>
      <point x="956" y="1220" type="line"/>
      <point x="908" y="1426" type="line"/>
      <point x="537" y="1287" type="line"/>
      <point x="598" y="1600" type="line"/>
      <point x="361" y="1600" type="line"/>
      <point x="423" y="1286" type="line"/>
      <point x="55" y="1423" type="line"/>
      <point x="6" y="1217" type="line"/>
      <point x="406" y="1202" type="line"/>
      <point x="79" y="979" type="line"/>
    </contour>
  </outline>
</glyph>
<glyph name="hyphen" format="2">
  <advance width="1572"/>
  <unicode hex="002D"/>
  <outline>
    <contour>
      <point x="110" y="660" type="line"/>
      <point x="1462" y="660" type="line"/>
      <point x="1462" y="933" type="line"/>
      <point x="110" y="933" type="line"/>
    </contour>
  </outline>
</glyph>
<glyph name="question" format="2">
  <advance width="1647"/>
  <unicode hex="003F"/>
  <outline>
    <contour>
      <point x="304" y="392" type="line"/>
      <point x="1567" y="661" type="line" identifier="yHYqkMd7LI"/>
      <point x="1568" y="1599" type="line" identifier="TBAYuCfUFX"/>
      <point x="-50" y="1599" type="line" identifier="NUrIjqOB7J"/>
      <point x="-50" y="903" type="line" identifier="0tk7G4orz6"/>
      <point x="333" y="903" type="line" identifier="vZkeT9KrKR"/>
      <point x="333" y="1356" type="line" identifier="4E754ovOIe"/>
      <point x="1185" y="1356" type="line" identifier="ZvzwyrcwpS"/>
      <point x="1184" y="879" type="line"/>
      <point x="238" y="674" type="line"/>
    </contour>
    <contour>
      <point x="562" y="0" type="line" identifier="S4rO5KuHiL"/>
      <point x="948" y="0" type="line" identifier="1m237t4hyw"/>
      <point x="948" y="332" type="line"/>
      <point x="562" y="332" type="line" identifier="zfocDyDTCM"/>
    </contour>
  </outline>
</glyph>
<glyph name="B" format="2">
  <advance width="2789"/>
  <unicode hex="0042"/>
  <outline>
    <contour>
      <point x="276" y="0" type="line"/>
      <point x="2346" y="0" type="line"/>
      <point x="2641" y="397" type="line"/>
      <point x="2641" y="930" type="line"/>
      <point x="2138" y="930" type="line"/>
      <point x="2323" y="1145" type="line"/>
      <point x="2323" y="1600" type="line"/>
      <point x="276" y="1600" type="line"/>
    </contour>
    <contour>
      <point x="659" y="273" type="line"/>
      <point x="659" y="663" type="line"/>
      <point x="2257" y="663" type="line"/>
      <point x="2257" y="484" type="line"/>
      <point x="2098" y="273" type="line"/>
    </contour>
    <contour>
      <point x="659" y="936" type="line"/>
      <point x="659" y="1327" type="line"/>
      <point x="1940" y="1327" type="line"/>
      <point x="1940" y="1159" type="line"/>
      <point x="1754" y="936" type="line"/>
    </contour>
  </outline>
</glyph>
<glyph name="E" format="2">
  <advance width="2600"/>
  <unicode hex="0045"/>
  <outline>
    <contour>
      <point x="275" y="0" type="line" identifier="fZynkQ4XHB"/>
      <point x="2416" y="0" type="line" identifier="FAQNpgUPxV"/>
      <point x="2416" y="597" type="line" identifier="gHI0YjrPxR"/>
      <point x="2060" y="597" type="line" identifier="gxCIuXb4el"/>
      <point x="2060" y="243" type="line" identifier="5cgTYOhATF"/>
      <point x="658" y="243" type="line" identifier="bWs42DaCgU"/>
      <point x="658" y="684" type="line" identifier="VtD2aADJmn"/>
      <point x="1542" y="684" type="line" identifier="PpbsFdHAnS"/>
      <point x="1542" y="926" type="line" identifier="8WuC5p8Ax5"/>
      <point x="658" y="926" type="line" identifier="m39IWn9ntA"/>
      <point x="658" y="1357" type="line" identifier="gQ21I4SHQg"/>
      <point x="2059" y="1357" type="line" identifier="eqNb2VTwYs"/>
      <point x="2059" y="1018" type="line" identifier="mLmcFoJA4m"/>
      <point x="2415" y="1018" type="line" identifier="e79n7CoPy1"/>
      <point x="2415" y="1600" type="line" identifier="qYRmo14Il5"/>
      <point x="275" y="1600" type="line" identifier="HmJIcnLWfC"/>
    </contour>
  </outline>
</glyph>
<glyph name="F" format="2">
  <advance width="2672"/>
  <unicode hex="0046"/>
  <outline>
    <contour>
      <point x="276" y="0" type="line" identifier="oAgH2tA6DJ"/>
      <point x="659" y="0" type="line" identifier="zCZyMcW5ho"/>
      <point x="659" y="636" type="line" identifier="yHYqkMd7LI"/>
      <point x="1929" y="636" type="line" identifier="NmB7yyQuio"/>
      <point x="1929" y="878" type="line" identifier="wQk2C8zPHh"/>
      <point x="659" y="878" type="line" identifier="4cFHKQfHDt"/>
      <point x="659" y="1357" type="line" identifier="ZvzwyrcwpS"/>
      <point x="2114" y="1357" type="line" identifier="4E754ovOIe"/>
      <point x="2114" y="986" type="line" identifier="vZkeT9KrKR"/>
      <point x="2498" y="986" type="line" identifier="0tk7G4orz6"/>
      <point x="2498" y="1600" type="line" identifier="NUrIjqOB7J"/>
      <point x="276" y="1600" type="line" identifier="TBAYuCfUFX"/>
    </contour>
  </outline>
</glyph>
<glyph name="M" format="2">
  <advance width="3537"/>
  <unicode hex="004D"/>
  <outline>
    <contour>
      <point x="1441" y="149" type="line" identifier="0Dn4Xpf57M"/>
      <point x="777" y="1372" type="line"/>
      <point x="628" y="1372" type="line"/>
      <point x="628" y="0" type="line"/>
      <point x="276" y="0" type="line"/>
      <point x="276" y="1600" type="line"/>
      <point x="1023" y="1600" type="line"/>
      <point x="1665" y="391" type="line"/>
      <point x="1874" y="391" type="line" identifier="9aKZPM0HPh"/>
      <point x="2518" y="1600" type="line"/>
      <point x="3261" y="1600" type="line"/>
      <point x="3261" y="0" type="line"/>
      <point x="2909" y="0" type="line"/>
      <point x="2909" y="1372" type="line"/>
      <point x="2757" y="1372" type="line"/>
      <point x="2094" y="149" type="line" identifier="spdoeeCFft"/>
    </contour>
  </outline>
</glyph>
<glyph name="P" format="2">
  <advance width="2615"/>
  <unicode hex="0050"/>
  <outline>
    <contour>
      <point x="276" y="0" type="line" identifier="EG08jqU5fb"/>
      <point x="659" y="0" type="line" identifier="osRzIFK2Cu"/>
      <point x="659" y="386" type="line" identifier="hIFVovVRwe"/>
      <point x="2429" y="386" type="line" identifier="Tt6D8zYZmU"/>
      <point x="2429" y="1600" type="line" identifier="6xW04auDFu"/>
      <point x="276" y="1600" type="line" identifier="eETO5GBD5v"/>
    </contour>
    <contour>
      <point x="659" y="629" type="line" identifier="PIBVN1PGv1"/>
      <point x="659" y="1357" type="line" identifier="IZIZQr2gYJ"/>
      <point x="2046" y="1357" type="line" identifier="2c4LCF1E1R"/>
      <point x="2046" y="629" type="line" identifier="1WCnzth1GX"/>
    </contour>
  </outline>
</glyph>
<glyph name="S" format="2">
  <advance width="2585"/>
  <unicode hex="0053"/>
  <outline>
    <contour>
      <point x="177" y="0" type="line" identifier="09VlJ0BjUX"/>
      <point x="2081" y="0" type="line" identifier="EagWihqFM8"/>
      <point x="2409" y="409" type="line"/>
      <point x="2409" y="948" type="line" identifier="KfNuQA7eZe"/>
      <point x="515" y="948" type="line" identifier="At364YZFEy"/>
      <point x="515" y="1080" type="line"/>
      <point x="694" y="1327" type="line"/>
      <point x="1990" y="1327" type="line" identifier="3ZUkG35meB"/>
      <point x="1990" y="1004" type="line" identifier="DTOJhFIl15"/>
      <point x="2373" y="1004" type="line" identifier="9KDcrfQ5Ui"/>
      <point x="2373" y="1600" type="line" identifier="SaF9ojRFrW"/>
      <point x="507" y="1600" type="line"/>
      <point x="178" y="1177" type="line"/>
      <point x="178" y="675" type="line" identifier="3sQ8t8BZ6b"/>
      <point x="2069" y="675" type="line" identifier="yiV6OCBLHg"/>
      <point x="2069" y="503" type="line"/>
      <point x="1887" y="272" type="line" identifier="9kdl9SYsn8"/>
      <point x="560" y="272" type="line" identifier="yZDWuX8LLe"/>
      <point x="560" y="596" type="line" identifier="jYb9001DTm"/>
      <point x="178" y="596" type="line" identifier="ho4DrS0rdW"/>
    </contour>
  </outline>
</glyph>
<glyph name="U" format="2">
  <advance width="2723"/>
  <unicode hex="0055"/>
  <outline>
    <contour>
      <point x="273" y="0" type="line" smooth="yes"/>
      <point x="2450" y="0" type="line" smooth="yes"/>
      <point x="2450" y="1600" type="line" smooth="yes"/>
      <point x="2067" y="1600" type="line" smooth="yes"/>
      <point x="2067" y="243" type="line"/>
      <point x="656" y="243" type="line" smooth="yes"/>
      <point x="656" y="1600" type="line"/>
      <point x="273" y="1600" type="line" smooth="yes"/>
    </contour>
  </outline>
</glyph>
<glyph name="W" format="2">
  <advance width="3599"/>
  <unicode hex="0057"/>
  <outline>
    <contour>
      <point x="275" y="0" type="line"/>
      <point x="1250" y="0" type="line"/>
      <point x="1714" y="1269" type="line"/>
      <point x="1886" y="1269" type="line" identifier="9aKZPM0HPh"/>
      <point x="2357" y="0" type="line"/>
      <point x="3324" y="0" type="line"/>
      <point x="3324" y="1600" type="line"/>
      <point x="2941" y="1600" type="line"/>
      <point x="2941" y="243" type="line"/>
      <point x="2658" y="243" type="line"/>
      <point x="2175" y="1500" type="line" identifier="spdoeeCFft"/>
      <point x="1425" y="1500" type="line" identifier="0Dn4Xpf57M"/>
      <point x="945" y="243" type="line"/>
      <point x="658" y="243" type="line"/>
      <point x="658" y="1600" type="line"/>
      <point x="275" y="1600" type="line"/>
    </contour>
  </outline>
</glyph>
<glyph name="Z" format="2">
  <advance width="2606"/>
  <unicode hex="005A"/>
  <outline>
    <contour>
      <point x="182" y="0" type="line"/>
      <point x="2422" y="0" type="line" identifier="pzdvPTirLJ"/>
      <point x="2423" y="732" type="line" identifier="91SxUS0iwG"/>
      <point x="2039" y="732" type="line"/>
      <point x="2039" y="273" type="line"/>
      <point x="558" y="274" type="line"/>
      <point x="558" y="368" type="line"/>
      <point x="2411" y="1102" type="line" identifier="yyb1NCCI5w"/>
      <point x="2411" y="1600" type="line" identifier="5FogYRSgkk"/>
      <point x="206" y="1600" type="line" identifier="svlFvrau4c"/>
      <point x="206" y="928" type="line" identifier="LQ9fBsTy9K"/>
      <point x="569" y="928" type="line"/>
      <point x="569" y="1327" type="line"/>
      <point x="2035" y="1327" type="line"/>
      <point x="2035" y="1261" type="line"/>
      <point x="183" y="522" type="line" identifier="teVKnpBcVb"/>
    </contour>
  </outline>
</glyph>
<glyph name="bracketleft" format="2">
  <advance width="1239"/>
  <unicode hex="005B"/>
  <outline>
    <contour>
      <point x="645" y="1469" type="line"/>
      <point x="1162" y="1469" type="line"/>
      <point x="1162" y="1742" type="line"/>
      <point x="276" y="1742" type="line"/>
      <point x="276" y="-142" type="line"/>
      <point x="1157" y="-142" type="line"/>
      <point x="1157" y="131" type="line"/>
      <point x="645" y="131" type="line"/>
    </contour>
  </outline>
</glyph>
<glyph name="backslash" format="2">
  <advance width="799"/>
  <unicode hex="005C"/>
  <outline>
    <contour>
      <point x="446" y="1717" type="line"/>
      <point x="63" y="1717" type="line"/>
      <point x="353" y="-117" type="line"/>
      <point x="737" y="-117" type="line"/>
    </contour>
  </outline>
</glyph>
<glyph name="braceleft" format="2">
  <advance width="1177"/>
  <unicode hex="007B"/>
  <outline>
    <contour>
      <point x="582" y="998" type="line"/>
      <point x="582" y="1499" type="line"/>
      <point x="1099" y="1499" type="line"/>
      <point x="1099" y="1742" type="line"/>
      <point x="213" y="1742" type="line"/>
      <point x="213" y="999" type="line"/>
      <point x="34" y="805" type="line"/>
      <point x="34" y="795" type="line"/>
      <point x="213" y="601" type="line"/>
      <point x="213" y="-142" type="line"/>
      <point x="1094" y="-142" type="line"/>
      <point x="1094" y="101" type="line"/>
      <point x="582" y="101" type="line"/>
      <point x="582" y="602" type="line"/>
      <point x="403" y="795" type="line"/>
      <point x="403" y="805" type="line"/>
    </contour>
  </outline>
</glyph>
<glyph name="ordfeminine" format="2">
  <advance width="986"/>
  <unicode hex="00AA"/>
  <outline>
    <contour>
      <point x="714" y="1256" type="line" smooth="yes"/>
      <point x="65" y="1256" type="line"/>
      <point x="65" y="839" type="line" smooth="yes"/>
      <point x="274" y="839" type="line" smooth="yes"/>
      <point x="274" y="1126" type="line" smooth="yes"/>
      <point x="714" y="1126" type="line" smooth="yes"/>
      <point x="714" y="839" type="line" smooth="yes"/>
      <point x="923" y="839" type="line" smooth="yes"/>
      <point x="923" y="1600" type="line" smooth="yes"/>
      <point x="65" y="1600" type="line" smooth="yes"/>
      <point x="65" y="1343" type="line"/>
      <point x="274" y="1343" type="line"/>
      <point x="274" y="1470" type="line" smooth="yes"/>
      <point x="714" y="1470" type="line" smooth="yes"/>
    </contour>
    <contour>
      <point x="272" y="969" type="line"/>
      <point x="272" y="839" type="line"/>
      <point x="714" y="839" type="line"/>
      <point x="714" y="969" type="line"/>
    </contour>
  </outline>
</glyph>
<glyph name="endash" format="2">
  <advance width="2132"/>
  <unicode hex="2013"/>
  <outline>
    <contour>
      <point x="110" y="660" type="line"/>
      <point x="2022" y="660" type="line"/>
      <point x="2022" y="933" type="line"/>
      <point x="110" y="933" type="line"/>
    </contour>
  </outline>
</glyph>
<glyph name="emdash" format="2">
  <advance width="3012"/>
  <unicode hex="2014"/>
  <outline>
    <contour>
      <point x="150" y="660" type="line"/>
      <point x="2862" y="660" type="line"/>
      <point x="2862" y="933" type="line"/>
      <point x="150" y="933" type="line"/>
    </contour>
  </outline>
</glyph>
<glyph name="summation" format="2">
  <advance width="2619"/>
  <unicode hex="2211"/>
  <outline>
    <contour>
      <point x="43" y="-400" type="line"/>
      <point x="2398" y="-400" type="line"/>
      <point x="2398" y="316" type="line"/>
      <point x="2029" y="316" type="line"/>
      <point x="2029" y="-157" type="line"/>
      <point x="516" y="-157" type="line"/>
      <point x="971" y="579" type="line"/>
      <point x="971" y="621" type="line"/>
      <point x="516" y="1357" type="line"/>
      <point x="2004" y="1357" type="line"/>
      <point x="2004" y="889" type="line"/>
      <point x="2373" y="889" type="line"/>
      <point x="2373" y="1600" type="line"/>
      <point x="42" y="1600" type="line"/>
      <point x="645" y="600" type="line"/>
    </contour>
  </outline>
</glyph>
<glyph name="C.wide" format="2">
  <advance width="2387"/>
  <outline>
    <contour>
      <point x="179" y="0" type="line" identifier="7lPhzTnk2Z"/>
      <point x="2210" y="0" type="line" identifier="qJVLZGnkwh"/>
      <point x="2210" y="273" type="line" identifier="Y750RHTvDj"/>
      <point x="562" y="273" type="line" identifier="L2LsGnXiZ2"/>
      <point x="562" y="1028" type="line" identifier="sUWsr03vF4"/>
      <point x="740" y="1327" type="line" identifier="dbOUe6OhxL"/>
      <point x="2209" y="1327" type="line" identifier="5BjRbcud80"/>
      <point x="2209" y="1600" type="line" identifier="9eJelv8BOw"/>
      <point x="471" y="1600" type="line" identifier="lfZev3ICaC"/>
      <point x="179" y="1116" type="line" identifier="V1EWIdPahq"/>
    </contour>
  </outline>
</glyph>
<glyph name="E.wide" format="2">
  <advance width="2521"/>
  <outline>
    <contour>
      <point x="276" y="0" type="line" identifier="fZynkQ4XHB"/>
      <point x="2291" y="0" type="line" identifier="FAQNpgUPxV"/>
      <point x="2291" y="273" type="line" identifier="5cgTYOhATF"/>
      <point x="659" y="273" type="line" identifier="bWs42DaCgU"/>
      <point x="659" y="674" type="line" identifier="VtD2aADJmn"/>
      <point x="1935" y="674" type="line" identifier="PpbsFdHAnS"/>
      <point x="1935" y="947" type="line" identifier="8WuC5p8Ax5"/>
      <point x="659" y="947" type="line" identifier="m39IWn9ntA"/>
      <point x="659" y="1327" type="line" identifier="gQ21I4SHQg"/>
      <point x="2285" y="1327" type="line" identifier="eqNb2VTwYs"/>
      <point x="2285" y="1600" type="line" identifier="qYRmo14Il5"/>
      <point x="276" y="1600" type="line" identifier="HmJIcnLWfC"/>
    </contour>
  </outline>
</glyph>
<glyph name="F.wide" format="2">
  <advance width="2570"/>
  <outline>
    <contour>
      <point x="263" y="0" type="line" identifier="oAgH2tA6DJ"/>
      <point x="646" y="0" type="line" identifier="zCZyMcW5ho"/>
      <point x="646" y="652" type="line" identifier="yHYqkMd7LI"/>
      <point x="2159" y="652" type="line" identifier="NmB7yyQuio"/>
      <point x="2159" y="895" type="line" identifier="wQk2C8zPHh"/>
      <point x="646" y="895" type="line" identifier="4cFHKQfHDt"/>
      <point x="646" y="1357" type="line" identifier="ZvzwyrcwpS"/>
      <point x="2398" y="1357" type="line" identifier="4E754ovOIe"/>
      <point x="2398" y="1600" type="line" identifier="NUrIjqOB7J"/>
      <point x="263" y="1600" type="line" identifier="TBAYuCfUFX"/>
    </contour>
  </outline>
</glyph>
<glyph name="L.wide" format="2">
  <advance width="2551"/>
  <outline>
    <contour>
      <point x="276" y="0" type="line" identifier="wgpFs1yguc"/>
      <point x="276" y="1600" type="line" identifier="d5Di3vNzni"/>
      <point x="659" y="1600" type="line" identifier="46RrD1WET2"/>
      <point x="659" y="243" type="line" identifier="zFXsE8BUYG"/>
      <point x="2354" y="243" type="line" identifier="NQmE31PUns"/>
      <point x="2354" y="0" type="line" identifier="jiO9eX9U07"/>
    </contour>
  </outline>
</glyph>
<glyph name="S.wide" format="2">
  <advance width="2531"/>
  <outline>
    <contour>
      <point x="178" y="0" type="line" identifier="09VlJ0BjUX"/>
      <point x="2042" y="0" type="line" identifier="EagWihqFM8"/>
      <point x="2353" y="407" type="line"/>
      <point x="2353" y="923" type="line" identifier="KfNuQA7eZe"/>
      <point x="542" y="923" type="line" identifier="At364YZFEy"/>
      <point x="542" y="1117" type="line"/>
      <point x="713" y="1358" type="line"/>
      <point x="2311" y="1358" type="line" identifier="3ZUkG35meB"/>
      <point x="2310" y="1600" type="line" identifier="SaF9ojRFrW"/>
      <point x="492" y="1600" type="line"/>
      <point x="180" y="1176" type="line"/>
      <point x="180" y="681" type="line" identifier="3sQ8t8BZ6b"/>
      <point x="1988" y="681" type="line" identifier="yiV6OCBLHg"/>
      <point x="1988" y="465" type="line"/>
      <point x="1815" y="241" type="line" identifier="9kdl9SYsn8"/>
      <point x="178" y="241" type="line" identifier="yZDWuX8LLe"/>
    </contour>
  </outline>
</glyph>
<glyph name="U.alt" format="2">
  <advance width="2736"/>
  <outline>
    <contour>
      <point x="2199" y="1600" type="line" smooth="yes"/>
      <point x="2199" y="243" type="line"/>
      <point x="513" y="243" type="line" smooth="yes"/>
      <point x="513" y="1600" type="line"/>
      <point x="157" y="1600" type="line" smooth="yes"/>
      <point x="157" y="0" type="line" smooth="yes"/>
      <point x="2555" y="0" type="line" smooth="yes"/>
      <point x="2555" y="1600" type="line" smooth="yes"/>
    </contour>
  </outline>
</glyph>
<glyph name="Y.alt" format="2">
  <advance width="2223"/>
  <outline>
    <contour>
      <point x="293" y="541" type="line" smooth="yes"/>
      <point x="1956" y="541" type="line" smooth="yes"/>
      <point x="2232" y="1569" type="line" smooth="yes"/>
      <point x="1864" y="1617" type="line" smooth="yes"/>
      <point x="1659" y="814" type="line"/>
      <point x="578" y="814" type="line" smooth="yes"/>
      <point x="373" y="1618" type="line"/>
      <point x="13" y="1569" type="line" smooth="yes"/>
    </contour>
    <contour>
      <point x="1631" y="684" type="line"/>
      <point x="1425" y="-24" type="line"/>
      <point x="1759" y="-90" type="line"/>
      <point x="1980" y="634" type="line"/>
    </contour>
  </outline>
</glyph>
<glyph name="Z.wide" format="2">
  <advance width="2621"/>
  <outline>
    <contour>
      <point x="198" y="0" type="line"/>
      <point x="2421" y="0" type="line" identifier="pzdvPTirLJ"/>
      <point x="2421" y="253" type="line"/>
      <point x="593" y="253" type="line"/>
      <point x="593" y="396" type="line"/>
      <point x="2359" y="1135" type="line" identifier="yyb1NCCI5w"/>
      <point x="2359" y="1600" type="line" identifier="5FogYRSgkk"/>
      <point x="206" y="1600" type="line" identifier="svlFvrau4c"/>
      <point x="206" y="1347" type="line"/>
      <point x="1964" y="1347" type="line"/>
      <point x="1964" y="1278" type="line"/>
      <point x="198" y="544" type="line" identifier="teVKnpBcVb"/>
    </contour>
  </outline>
</glyph>
<glyph name="six.wide" format="2">
  <advance width="2641"/>
  <outline>
    <contour>
      <point x="188" y="0" type="line" identifier="uiw6aBUf4P"/>
      <point x="2546" y="0" type="line" identifier="jtYkxiUX6G"/>
      <point x="2546" y="956" type="line" identifier="2G5L37c87I"/>
      <point x="571" y="956" type="line"/>
      <point x="571" y="1142" type="line"/>
      <point x="743" y="1327" type="line"/>
      <point x="2520" y="1327" type="line"/>
      <point x="2520" y="1600" type="line" identifier="oGvEEuxnYv"/>
      <point x="527" y="1600" type="line" identifier="xR3pEHbMJx"/>
      <point x="188" y="1232" type="line" identifier="KnMArb0tv8"/>
    </contour>
    <contour>
      <point x="2162" y="683" type="line"/>
      <point x="2162" y="273" type="line"/>
      <point x="571" y="273" type="line"/>
      <point x="571" y="683" type="line"/>
    </contour>
  </outline>
</glyph>
<glyph name="three.wide" format="2">
  <advance width="2687"/>
  <outline>
    <contour>
      <point x="210" y="0" type="line" identifier="O9abUc1nmN"/>
      <point x="2500" y="0" type="line" identifier="kMJYMTfXCq"/>
      <point x="2500" y="921" type="line" identifier="su2XmdS8e8"/>
      <point x="2154" y="921" type="line" identifier="JQaOzDQqlF"/>
      <point x="2338" y="1130" type="line"/>
      <point x="2338" y="1600" type="line" identifier="xg8x2Ki40p"/>
      <point x="302" y="1600" type="line" identifier="pE1XSRiy68"/>
      <point x="302" y="1327" type="line" identifier="7ogBYufWpl"/>
      <point x="1955" y="1327" type="line" identifier="RHLvSX2Jv6"/>
      <point x="1955" y="1164" type="line"/>
      <point x="1787" y="951" type="line" identifier="iic1IBkDqp"/>
      <point x="898" y="950" type="line" identifier="lRLJEhXMlO"/>
      <point x="898" y="677" type="line" identifier="8aKgEELrVU"/>
      <point x="2116" y="677" type="line" identifier="Dm8zjmbhNr"/>
      <point x="2116" y="273" type="line" identifier="xv9CFHiFgB"/>
      <point x="210" y="273" type="line" identifier="YajKQV3MHP"/>
    </contour>
  </outline>
</glyph>
<glyph name="two.wide" format="2">
  <advance width="2666"/>
  <outline>
    <contour>
      <point x="224" y="0" type="line"/>
      <point x="2453" y="0" type="line" identifier="pzdvPTirLJ"/>
      <point x="2453" y="243" type="line"/>
      <point x="613" y="243" type="line"/>
      <point x="613" y="676" type="line"/>
      <point x="2427" y="676" type="line" identifier="yyb1NCCI5w"/>
      <point x="2427" y="1600" type="line" identifier="5FogYRSgkk"/>
      <point x="229" y="1600" type="line" identifier="svlFvrau4c"/>
      <point x="229" y="1357" type="line"/>
      <point x="2043" y="1357" type="line"/>
      <point x="2043" y="919" type="line"/>
      <point x="224" y="919" type="line" identifier="teVKnpBcVb"/>
    </contour>
  </outline>
</glyph>
